# xmcd
#
# Track frame offsets:
#       150
#       18607
#       37540
#       53967
#       67760
#       86765
#       101430
#       116922
#       140627
#       155659
#       170402
#       187145
#       206967
#       220590
#       236787
#
# Disc length: 3357 seconds
#
# Revision: 2
# Processed by: cddbd v1.4PL0 Copyright (c) Steve Scherf et al.
# Submitted via: CD-DA_X-Tractor v0.21
#
DISCID=d80d1b0f
DTITLE=Grant and Forsyth - Grant and Forsyth
DYEAR=1900
DGENRE=
TTITLE0=The sun ain't gonna shine anymore/ be my baby
TTITLE1=Anything for you
TTITLE2=To know you is to love you
TTITLE3=Lady bird
TTITLE4=You've lost that lovin'feeling
TTITLE5=Sometimes when we touch
TTITLE6=Why not me
TTITLE7=Slow medley
TTITLE8=Walk of life
TTITLE9=Let it be me
TTITLE10=Love on the rocks
TTITLE11=Do that to me one more time
TTITLE12=Turning over new leaves
TTITLE13=The greatest gift of all
TTITLE14=Somewhere between
EXTD=
EXTT0=
EXTT1=
EXTT2=
EXTT3=
EXTT4=
EXTT5=
EXTT6=
EXTT7=
EXTT8=
EXTT9=
EXTT10=
EXTT11=
EXTT12=
EXTT13=
EXTT14=
PLAYORDER=
